<?xml version="1.0" encoding="UTF-8"?>
<!DOCTYPE svg PUBLIC "-//W3C//DTD SVG 1.1//EN" "http://www.w3.org/Graphics/SVG/1.1/DTD/svg11.dtd">
<svg xmlns="http://www.w3.org/2000/svg" version="1.1" width="512px" height="512px" style="shape-rendering:geometricPrecision; text-rendering:geometricPrecision; image-rendering:optimizeQuality; fill-rule:evenodd; clip-rule:evenodd" xmlns:xlink="http://www.w3.org/1999/xlink">
<g><path style="opacity:0.978" fill="#ffffff" d="M 46.5,46.5 C 186.167,46.5 325.833,46.5 465.5,46.5C 465.5,186.167 465.5,325.833 465.5,465.5C 325.833,465.5 186.167,465.5 46.5,465.5C 46.5,325.833 46.5,186.167 46.5,46.5 Z M 68.5,68.5 C 193.833,68.5 319.167,68.5 444.5,68.5C 444.5,193.833 444.5,319.167 444.5,444.5C 319.167,444.5 193.833,444.5 68.5,444.5C 68.5,319.167 68.5,193.833 68.5,68.5 Z"/></g>
<g><path style="opacity:0.982" fill="#ffffff" d="M 191.5,116.5 C 256.5,116.5 321.5,116.5 386.5,116.5C 386.5,133.5 386.5,150.5 386.5,167.5C 324.166,167.333 261.832,167.5 199.5,168C 190.779,169.055 185.612,173.889 184,182.5C 183.333,231.5 183.333,280.5 184,329.5C 185.226,335.793 188.726,340.293 194.5,343C 258.442,344.489 322.442,344.989 386.5,344.5C 386.5,361.5 386.5,378.5 386.5,395.5C 322.166,395.667 257.832,395.5 193.5,395C 154.13,387.963 133.63,364.463 132,324.5C 131.059,275.149 131.392,225.815 133,176.5C 138.902,143.099 158.402,123.099 191.5,116.5 Z"/></g>
</svg>
